<?xml version="1.0" encoding="UTF-8" standalone="no"?>
<!DOCTYPE svg PUBLIC "-//W3C//DTD SVG 1.1//EN" "http://www.w3.org/Graphics/SVG/1.1/DTD/svg11.dtd">
<svg width="100%" height="100%" viewBox="0 0 2084 417" version="1.1" xmlns="http://www.w3.org/2000/svg" xmlns:xlink="http://www.w3.org/1999/xlink" xml:space="preserve" xmlns:serif="http://www.serif.com/" style="fill-rule:evenodd;clip-rule:evenodd;stroke-linejoin:round;stroke-miterlimit:2;">
    <rect x="0" y="0" width="2083.33" height="416.667" style="fill:url(#_Linear1);"/>
    <g>
        <g transform="matrix(1,0,0,1,639.933,335.924)">
            <text x="0px" y="0px" style="font-family:'Arial-BoldMT', 'Arial', sans-serif;font-weight:700;font-size:150px;fill:rgb(105,105,105);">05064661458</text>
        </g>
        <g transform="matrix(1,0,0,1,631.6,331.757)">
            <text x="0px" y="0px" style="font-family:'Arial-BoldMT', 'Arial', sans-serif;font-weight:700;font-size:150px;fill:rgb(207,129,216);">05064661458</text>
        </g>
    </g>
    <g transform="matrix(0.513008,0,0,0.513008,419.291,172.627)">
        <path d="M48.701,372.268C46.845,372.268 45.039,371.534 43.699,370.179C41.934,368.393 41.253,365.8 41.916,363.377L63.409,284.893C50.028,260.697 42.973,233.325 42.983,205.54C43.021,115.179 116.556,41.667 206.909,41.667C250.734,41.684 291.912,58.755 322.863,89.729C353.809,120.705 370.845,161.881 370.832,205.671C370.792,296.034 297.257,369.551 206.909,369.551L206.838,369.551C180.448,369.541 154.284,363.109 130.988,350.927L50.484,372.038C49.894,372.192 49.294,372.268 48.701,372.268Z" style="fill:rgb(229,229,229);fill-rule:nonzero;"/>
    </g>
    <g transform="matrix(0.513008,0,0,0.513008,419.291,172.627)">
        <path d="M48.701,365.233L70.958,283.957C57.229,260.17 50.008,233.186 50.018,205.542C50.053,119.06 120.43,48.701 206.909,48.701C248.875,48.719 288.265,65.053 317.887,94.7C347.506,124.347 363.813,163.755 363.798,205.668C363.76,292.147 293.373,362.516 206.909,362.516C206.904,362.516 206.911,362.516 206.909,362.516L206.841,362.516C180.584,362.506 154.786,355.921 131.871,343.423L48.701,365.233ZM135.723,315.029L140.487,317.852C160.504,329.732 183.454,336.015 206.859,336.027L206.909,336.027C278.779,336.027 337.276,277.541 337.306,205.658C337.319,170.823 323.769,138.066 299.149,113.426C274.526,88.785 241.79,75.208 206.957,75.193C135.029,75.193 76.535,133.672 76.507,205.552C76.497,230.185 83.388,254.172 96.443,274.93L99.545,279.864L86.369,327.969L135.723,315.029Z" style="fill:white;fill-rule:nonzero;"/>
    </g>
    <g transform="matrix(0.513008,0,0,0.513008,419.291,172.627)">
        <path d="M54.157,359.757L75.644,281.291C62.387,258.328 55.418,232.276 55.426,205.592C55.458,122.105 123.401,54.182 206.881,54.182C247.399,54.2 285.428,69.969 314.018,98.59C342.615,127.21 358.355,165.254 358.339,205.711C358.304,289.201 290.359,357.131 206.889,357.131C206.881,357.131 206.891,357.131 206.889,357.131L206.821,357.131C181.474,357.121 156.567,350.76 134.446,338.704L54.157,359.757Z" style="fill:rgb(100,177,97);fill-rule:nonzero;"/>
    </g>
    <g transform="matrix(0.513008,0,0,0.513008,419.291,172.627)">
        <path d="M48.701,365.233L70.958,283.957C57.229,260.17 50.008,233.186 50.018,205.542C50.053,119.06 120.43,48.701 206.909,48.701C248.875,48.719 288.265,65.053 317.887,94.7C347.506,124.347 363.813,163.755 363.798,205.668C363.76,292.147 293.373,362.516 206.909,362.516C206.904,362.516 206.911,362.516 206.909,362.516L206.841,362.516C180.584,362.506 154.786,355.921 131.871,343.423L48.701,365.233ZM135.723,315.029L140.487,317.852C160.504,329.732 183.454,336.015 206.859,336.027L206.909,336.027C278.779,336.027 337.276,277.541 337.306,205.658C337.319,170.823 323.769,138.066 299.149,113.426C274.526,88.785 241.79,75.208 206.957,75.193C135.029,75.193 76.535,133.672 76.507,205.552C76.497,230.185 83.388,254.172 96.443,274.93L99.545,279.864L86.369,327.969L135.723,315.029Z" style="fill:white;fill-rule:nonzero;"/>
    </g>
    <g transform="matrix(0.513008,0,0,0.513008,419.291,172.627)">
        <path d="M167.698,139.973C164.762,133.445 161.669,133.314 158.875,133.2C156.589,133.102 153.974,133.107 151.363,133.107C148.75,133.107 144.503,134.091 140.911,138.013C137.317,141.935 127.187,151.419 127.187,170.707C127.187,189.997 141.236,208.634 143.196,211.252C145.156,213.868 170.316,254.714 210.16,270.428C243.275,283.488 250.012,280.89 257.201,280.237C264.389,279.584 280.393,270.753 283.66,261.6C286.928,252.446 286.928,244.602 285.947,242.96C284.966,241.328 282.353,240.347 278.433,238.387C274.514,236.427 255.241,226.941 251.647,225.635C248.052,224.326 245.439,223.675 242.826,227.599C240.211,231.519 232.704,240.347 230.417,242.96C228.129,245.581 225.841,245.909 221.922,243.946C218.002,241.981 205.375,237.845 190.398,224.489C178.745,214.1 170.876,201.267 168.588,197.342C166.303,193.422 168.55,191.485 170.311,189.344C173.481,185.487 178.801,178.554 180.107,175.941C181.414,173.322 180.76,171.035 179.782,169.072C178.801,167.113 171.181,147.726 167.698,139.973Z" style="fill:white;"/>
    </g>
    <g transform="matrix(1,0,0,1,328.531,173.543)">
        <text x="0px" y="0px" style="font-family:'Arial-BoldMT', 'Arial', sans-serif;font-weight:700;font-size:100px;fill:rgb(105,105,105);">ilan için sadece WhatsApp ile:</text>
    </g>
    <g transform="matrix(1,0,0,1,324.365,169.377)">
        <text x="0px" y="0px" style="font-family:'Arial-BoldMT', 'Arial', sans-serif;font-weight:700;font-size:100px;fill:white;">ilan için sadece WhatsApp ile:</text>
    </g>
    <defs>
        <linearGradient id="_Linear1" x1="0" y1="0" x2="1" y2="0" gradientUnits="userSpaceOnUse" gradientTransform="matrix(2083.33,0,0,2083.33,0,208.333)"><stop offset="0" style="stop-color:rgb(239,210,255);stop-opacity:1"/><stop offset="1" style="stop-color:rgb(254,232,203);stop-opacity:1"/></linearGradient>
    </defs>
</svg>
