<svg xmlns="http://www.w3.org/2000/svg" width="682.667" height="682.667" preserveAspectRatio="xMidYMid meet" version="1.0" viewBox="0 0 512 512"><metadata>Created by potrace 1.11, written by Peter Selinger 2001-2013</metadata><g fill="#000" stroke="none"><path d="M2495 5069 c-182 -154 -336 -326 -459 -513 -44 -66 -136 -245 -136 -263 0 -6 -38 8 -86 33 -168 86 -351 143 -544 169 -61 8 -235 13 -484 14 l-390 2 166 -166 c237 -237 368 -414 466 -626 74 -161 116 -290 147 -454 29 -155 32 -205 36 -563 2 -261 5 -298 36 -442 92 -435 423 -815 849 -975 67 -25 192 -58 272 -70 l43 -7 -2 -119 c-2 -191 -38 -318 -127 -457 -63 -99 -207 -219 -317 -267 -104 -44 -169 -57 -326 -62 -183 -6 -240 5 -316 65 -72 57 -108 135 -108 232 1 57 6 86 23 123 29 61 88 120 149 149 65 30 178 31 244 1 97 -43 174 -154 178 -255 1 -16 15 -18 151 -18 l150 0 0 28 c-1 58 -31 170 -66 242 -27 56 -57 94 -113 150 -126 125 -247 175 -421 175 -173 0 -299 -52 -421 -174 -147 -148 -206 -344 -164 -546 47 -223 234 -411 459 -460 80 -18 395 -13 486 8 148 33 296 100 410 186 91 69 222 210 259 279 6 12 15 22 19 22 4 0 27 -29 51 -65 127 -186 377 -362 586 -411 150 -36 436 -46 548 -20 178 42 328 163 407 331 121 255 51 552 -171 728 -111 87 -216 122 -369 122 -156 0 -264 -37 -375 -128 -129 -105 -225 -289 -225 -430 l0 -37 149 0 150 0 11 57 c21 97 76 168 165 209 115 53 243 32 330 -54 74 -74 105 -174 84 -272 -21 -97 -76 -165 -169 -209 -53 -25 -62 -26 -220 -26 -192 1 -268 17 -404 88 -122 62 -246 190 -309 317 -59 119 -82 219 -86 378 l-3 122 24 0 c32 0 222 47 286 71 443 164 776 556 867 1019 19 97 24 173 25 380 0 129 3 276 6 325 20 385 155 753 387 1058 47 63 236 264 413 440 4 4 -171 7 -388 7 -558 -1 -685 -23 -988 -166 -82 -39 -116 -51 -119 -42 -16 50 -125 241 -187 328 -90 127 -153 200 -259 304 -73 72 -207 187 -216 186 -2 -1 -31 -24 -64 -51z" transform="translate(0.000000,512.000000) scale(0.100000,-0.100000)"/></g></svg>